<?xml version="1.0" encoding="UTF-8"?>
<!DOCTYPE svg PUBLIC "-//W3C//DTD SVG 1.1//EN" "http://www.w3.org/Graphics/SVG/1.1/DTD/svg11.dtd">
<!-- Creator: CorelDRAW 2021 (64-Bit) -->
<svg xmlns="http://www.w3.org/2000/svg" xml:space="preserve" width="504px" height="512px" version="1.1" shape-rendering="geometricPrecision" text-rendering="geometricPrecision" image-rendering="optimizeQuality" fill-rule="evenodd" clip-rule="evenodd"
viewBox="0 0 504 512.08"
 xmlns:xlink="http://www.w3.org/1999/xlink"
 xmlns:xodm="http://www.corel.com/coreldraw/odm/2003">
 <g id="Layer_x0020_1">
  <metadata id="CorelCorpID_0Corel-Layer"/>
  <path fill="black" fill-rule="nonzero" d="M13.49 173.45l23.38 3.7c12.51,-47.72 39.53,-89.78 76.2,-120.9 39.02,-33.1 89.03,-53.9 144.18,-56.06 65.47,-2.58 125.83,21.67 170.47,62.93 44.62,41.26 73.52,99.53 76.09,164.99 0.96,24.59 -1.81,48.38 -7.8,70.78 -4.51,16.87 -10.87,33.05 -18.85,48.3l-0.58 -0.94c-5.71,-9.04 -13.82,-16.56 -23.62,-21.56 -4.27,-2.18 -8.86,-3.9 -13.7,-5.07 4.95,-10.41 9,-21.33 12.03,-32.68 4.87,-18.21 7.13,-37.38 6.36,-57.02 -2.07,-52.79 -25.33,-99.74 -61.25,-132.95 -35.92,-33.2 -84.54,-52.7 -137.34,-50.62 -44.38,1.74 -84.66,18.51 -116.12,45.2 -28.42,24.11 -49.63,56.31 -60.17,92.84l18.78 2.96c6.38,0.99 10.76,6.97 9.77,13.35 -0.43,2.79 -1.82,5.21 -3.78,6.95l-52.48 46.73c-4.83,4.3 -12.25,3.87 -16.56,-0.97 -0.73,-0.81 -1.32,-1.71 -1.78,-2.64l-35.11 -59.84c-3.27,-5.57 -1.4,-12.74 4.17,-16.01 2.42,-1.42 5.14,-1.86 7.71,-1.47zm97.1 291.02l0 -137.14c67.65,0 79.15,-3.05 140.13,35.33l47.92 0c21.69,1.29 33.05,23.29 11.96,37.73 -16.79,12.33 -38.96,11.63 -61.69,9.59 -15.68,-0.78 -16.35,20.28 0,20.35 5.68,0.45 11.84,-0.89 17.22,-0.89 28.35,-0.04 51.71,-5.46 66.01,-27.86l7.17 -16.75 71.28 -35.32c35.66,-11.74 61.03,25.56 34.73,51.52 -51.63,37.55 -104.56,68.45 -158.71,93.41 -39.34,23.93 -78.67,23.1 -117.97,0l-58.05 -29.97zm-105.64 -150.32l87.06 0 0 164.1 -87.06 0 0 -164.1zm189.14 -116.41l12.66 -28.51 47.73 0c-0.6,-2.03 -1.64,-4.02 -3.15,-5.96 -1.51,-1.95 -3.37,-3.63 -5.57,-5.06 -2.2,-1.42 -4.67,-2.59 -7.39,-3.45 -2.72,-0.91 -5.61,-1.34 -8.64,-1.34l-35.64 0 12.66 -28.51 136.64 0 -12.66 28.51 -33 0c1.29,0.99 2.5,2.16 3.63,3.5 1.12,1.29 2.11,2.63 2.98,4.1 0.82,1.43 1.55,2.85 2.16,4.28 0.56,1.42 0.95,2.76 1.12,3.93l35.77 0 -12.66 28.51 -25.88 0c-1.9,4.84 -4.7,9.42 -8.46,13.74 -3.76,4.36 -8.12,8.2 -13.09,11.66 -5.01,3.46 -10.41,6.31 -16.25,8.68 -5.83,2.33 -11.74,3.89 -17.75,4.75l71.8 73.92 -56.77 0 -64.02 -70.25 0 -26.17 28.34 0c2.72,0 5.4,-0.43 8.04,-1.34 2.68,-0.91 5.14,-2.12 7.34,-3.63 2.25,-1.47 4.19,-3.24 5.83,-5.18 1.64,-1.99 2.81,-4.02 3.5,-6.18l-59.27 0z"/>
 </g>
</svg>
